<svg xmlns="http://www.w3.org/2000/svg" version="1.1" xmlns:xlink="http://www.w3.org/1999/xlink" xmlns:svgjs="http://svgjs.com/svgjs" width="1440" height="560" preserveAspectRatio="none" viewBox="0 0 1440 560">
    <g mask="url(&quot;#SvgjsMask1000&quot;)" fill="none">
        <rect width="1440" height="560" x="0" y="0" fill="#0e2a47"></rect>
        <path d="M190.26 210.07L255.21 247.57L255.21 322.57L190.26 360.07L125.3 322.57L125.3 247.57zM385.12 322.57L450.07 360.07L450.07 435.07L385.12 472.57L320.17 435.07L320.17 360.07zM385.12 547.57L450.07 585.07L450.07 660.07L385.12 697.57L320.17 660.07L320.17 585.07zM450.07 -14.93L515.03 22.57L515.03 97.57L450.07 135.07L385.12 97.57L385.12 22.57zM515.03 97.57L579.98 135.07L579.98 210.07L515.03 247.57L450.07 210.07L450.07 135.07zM579.98 210.07L644.93 247.57L644.93 322.57L579.98 360.07L515.03 322.57L515.03 247.57zM644.93 322.57L709.89 360.07L709.89 435.07L644.93 472.57L579.98 435.07L579.98 360.07zM904.75 97.57L969.7 135.07L969.7 210.07L904.75 247.57L839.79 210.07L839.79 135.07zM1099.61 -14.93L1164.56 22.57L1164.56 97.57L1099.61 135.07L1034.66 97.57L1034.66 22.57zM1164.56 322.57L1229.52 360.07L1229.52 435.07L1164.56 472.57L1099.61 435.07L1099.61 360.07zM1164.56 547.57L1229.52 585.07L1229.52 660.07L1164.56 697.57L1099.61 660.07L1099.61 585.07zM1554.29 97.57L1619.24 135.07L1619.24 210.07L1554.29 247.57L1489.33 210.07L1489.33 135.07z" stroke="#03305d" stroke-width="2"></path>
        <path d="M182.76 210.07 a7.5 7.5 0 1 0 15 0 a7.5 7.5 0 1 0 -15 0zM247.71 247.57 a7.5 7.5 0 1 0 15 0 a7.5 7.5 0 1 0 -15 0zM247.71 322.57 a7.5 7.5 0 1 0 15 0 a7.5 7.5 0 1 0 -15 0zM182.76 360.07 a7.5 7.5 0 1 0 15 0 a7.5 7.5 0 1 0 -15 0zM117.8 322.57 a7.5 7.5 0 1 0 15 0 a7.5 7.5 0 1 0 -15 0zM117.8 247.57 a7.5 7.5 0 1 0 15 0 a7.5 7.5 0 1 0 -15 0zM377.62 322.57 a7.5 7.5 0 1 0 15 0 a7.5 7.5 0 1 0 -15 0zM442.57 360.07 a7.5 7.5 0 1 0 15 0 a7.5 7.5 0 1 0 -15 0zM442.57 435.07 a7.5 7.5 0 1 0 15 0 a7.5 7.5 0 1 0 -15 0zM377.62 472.57 a7.5 7.5 0 1 0 15 0 a7.5 7.5 0 1 0 -15 0zM312.67 435.07 a7.5 7.5 0 1 0 15 0 a7.5 7.5 0 1 0 -15 0zM312.67 360.07 a7.5 7.5 0 1 0 15 0 a7.5 7.5 0 1 0 -15 0zM377.62 547.57 a7.5 7.5 0 1 0 15 0 a7.5 7.5 0 1 0 -15 0zM442.57 585.07 a7.5 7.5 0 1 0 15 0 a7.5 7.5 0 1 0 -15 0zM442.57 660.07 a7.5 7.5 0 1 0 15 0 a7.5 7.5 0 1 0 -15 0zM377.62 697.57 a7.5 7.5 0 1 0 15 0 a7.5 7.5 0 1 0 -15 0zM312.67 660.07 a7.5 7.5 0 1 0 15 0 a7.5 7.5 0 1 0 -15 0zM312.67 585.07 a7.5 7.5 0 1 0 15 0 a7.5 7.5 0 1 0 -15 0zM442.57 -14.93 a7.5 7.5 0 1 0 15 0 a7.5 7.5 0 1 0 -15 0zM507.53 22.57 a7.5 7.5 0 1 0 15 0 a7.5 7.5 0 1 0 -15 0zM507.53 97.57 a7.5 7.5 0 1 0 15 0 a7.5 7.5 0 1 0 -15 0zM442.57 135.07 a7.5 7.5 0 1 0 15 0 a7.5 7.5 0 1 0 -15 0zM377.62 97.57 a7.5 7.5 0 1 0 15 0 a7.5 7.5 0 1 0 -15 0zM377.62 22.57 a7.5 7.5 0 1 0 15 0 a7.5 7.5 0 1 0 -15 0zM572.48 135.07 a7.5 7.5 0 1 0 15 0 a7.5 7.5 0 1 0 -15 0zM572.48 210.07 a7.5 7.5 0 1 0 15 0 a7.5 7.5 0 1 0 -15 0zM507.53 247.57 a7.5 7.5 0 1 0 15 0 a7.5 7.5 0 1 0 -15 0zM442.57 210.07 a7.5 7.5 0 1 0 15 0 a7.5 7.5 0 1 0 -15 0zM637.43 247.57 a7.5 7.5 0 1 0 15 0 a7.5 7.5 0 1 0 -15 0zM637.43 322.57 a7.5 7.5 0 1 0 15 0 a7.5 7.5 0 1 0 -15 0zM572.48 360.07 a7.5 7.5 0 1 0 15 0 a7.5 7.5 0 1 0 -15 0zM507.53 322.57 a7.5 7.5 0 1 0 15 0 a7.5 7.5 0 1 0 -15 0zM702.39 360.07 a7.5 7.5 0 1 0 15 0 a7.5 7.5 0 1 0 -15 0zM702.39 435.07 a7.5 7.5 0 1 0 15 0 a7.5 7.5 0 1 0 -15 0zM637.43 472.57 a7.5 7.5 0 1 0 15 0 a7.5 7.5 0 1 0 -15 0zM572.48 435.07 a7.5 7.5 0 1 0 15 0 a7.5 7.5 0 1 0 -15 0zM897.25 97.57 a7.5 7.5 0 1 0 15 0 a7.5 7.5 0 1 0 -15 0zM962.2 135.07 a7.5 7.5 0 1 0 15 0 a7.5 7.5 0 1 0 -15 0zM962.2 210.07 a7.5 7.5 0 1 0 15 0 a7.5 7.5 0 1 0 -15 0zM897.25 247.57 a7.5 7.5 0 1 0 15 0 a7.5 7.5 0 1 0 -15 0zM832.29 210.07 a7.5 7.5 0 1 0 15 0 a7.5 7.5 0 1 0 -15 0zM832.29 135.07 a7.5 7.5 0 1 0 15 0 a7.5 7.5 0 1 0 -15 0zM1092.11 -14.93 a7.5 7.5 0 1 0 15 0 a7.5 7.5 0 1 0 -15 0zM1157.06 22.57 a7.5 7.5 0 1 0 15 0 a7.5 7.5 0 1 0 -15 0zM1157.06 97.57 a7.5 7.5 0 1 0 15 0 a7.5 7.5 0 1 0 -15 0zM1092.11 135.07 a7.5 7.5 0 1 0 15 0 a7.5 7.5 0 1 0 -15 0zM1027.16 97.57 a7.5 7.5 0 1 0 15 0 a7.5 7.5 0 1 0 -15 0zM1027.16 22.57 a7.5 7.5 0 1 0 15 0 a7.5 7.5 0 1 0 -15 0zM1157.06 322.57 a7.5 7.5 0 1 0 15 0 a7.5 7.5 0 1 0 -15 0zM1222.02 360.07 a7.5 7.5 0 1 0 15 0 a7.5 7.5 0 1 0 -15 0zM1222.02 435.07 a7.5 7.5 0 1 0 15 0 a7.5 7.5 0 1 0 -15 0zM1157.06 472.57 a7.5 7.5 0 1 0 15 0 a7.5 7.5 0 1 0 -15 0zM1092.11 435.07 a7.5 7.5 0 1 0 15 0 a7.5 7.5 0 1 0 -15 0zM1092.11 360.07 a7.5 7.5 0 1 0 15 0 a7.5 7.5 0 1 0 -15 0zM1157.06 547.57 a7.5 7.5 0 1 0 15 0 a7.5 7.5 0 1 0 -15 0zM1222.02 585.07 a7.5 7.5 0 1 0 15 0 a7.5 7.5 0 1 0 -15 0zM1222.02 660.07 a7.5 7.5 0 1 0 15 0 a7.5 7.5 0 1 0 -15 0zM1157.06 697.57 a7.5 7.5 0 1 0 15 0 a7.5 7.5 0 1 0 -15 0zM1092.11 660.07 a7.5 7.5 0 1 0 15 0 a7.5 7.5 0 1 0 -15 0zM1092.11 585.07 a7.5 7.5 0 1 0 15 0 a7.5 7.5 0 1 0 -15 0zM1546.79 97.57 a7.5 7.5 0 1 0 15 0 a7.5 7.5 0 1 0 -15 0zM1611.74 135.07 a7.5 7.5 0 1 0 15 0 a7.5 7.5 0 1 0 -15 0zM1611.74 210.07 a7.5 7.5 0 1 0 15 0 a7.5 7.5 0 1 0 -15 0zM1546.79 247.57 a7.5 7.5 0 1 0 15 0 a7.5 7.5 0 1 0 -15 0zM1481.83 210.07 a7.5 7.5 0 1 0 15 0 a7.5 7.5 0 1 0 -15 0zM1481.83 135.07 a7.5 7.5 0 1 0 15 0 a7.5 7.5 0 1 0 -15 0z" fill="#03305d"></path>
        <path d="M126.9 -10.98L170.2 14.02L170.2 64.02L126.9 89.02L83.59 64.02L83.59 14.02zM170.2 214.02L213.5 239.02L213.5 289.02L170.2 314.02L126.9 289.02L126.9 239.02zM126.9 289.02L170.2 314.02L170.2 364.02L126.9 389.02L83.59 364.02L83.59 314.02zM170.2 514.02L213.5 539.02L213.5 589.02L170.2 614.02L126.9 589.02L126.9 539.02zM256.8 214.02L300.11 239.02L300.11 289.02L256.8 314.02L213.5 289.02L213.5 239.02zM300.11 -10.98L343.41 14.02L343.41 64.02L300.11 89.02L256.8 64.02L256.8 14.02zM343.41 64.02L386.71 89.02L386.71 139.02L343.41 164.02L300.11 139.02L300.11 89.02zM300.11 289.02L343.41 314.02L343.41 364.02L300.11 389.02L256.8 364.02L256.8 314.02zM343.41 364.02L386.71 389.02L386.71 439.02L343.41 464.02L300.11 439.02L300.11 389.02zM300.11 439.02L343.41 464.02L343.41 514.02L300.11 539.02L256.8 514.02L256.8 464.02zM386.71 439.02L430.01 464.02L430.01 514.02L386.71 539.02L343.41 514.02L343.41 464.02zM430.01 514.02L473.32 539.02L473.32 589.02L430.01 614.02L386.71 589.02L386.71 539.02zM473.32 139.02L516.62 164.02L516.62 214.02L473.32 239.02L430.01 214.02L430.01 164.02zM516.62 214.02L559.92 239.02L559.92 289.02L516.62 314.02L473.32 289.02L473.32 239.02zM733.13 -10.98L776.43 14.02L776.43 64.02L733.13 89.02L689.83 64.02L689.83 14.02zM863.04 214.02L906.34 239.02L906.34 289.02L863.04 314.02L819.74 289.02L819.74 239.02zM906.34 -10.98L949.64 14.02L949.64 64.02L906.34 89.02L863.04 64.02L863.04 14.02zM906.34 289.02L949.64 314.02L949.64 364.02L906.34 389.02L863.04 364.02L863.04 314.02zM906.34 439.02L949.64 464.02L949.64 514.02L906.34 539.02L863.04 514.02L863.04 464.02zM1122.85 64.02L1166.15 89.02L1166.15 139.02L1122.85 164.02L1079.55 139.02L1079.55 89.02zM1122.85 364.02L1166.15 389.02L1166.15 439.02L1122.85 464.02L1079.55 439.02L1079.55 389.02zM1122.85 514.02L1166.15 539.02L1166.15 589.02L1122.85 614.02L1079.55 589.02L1079.55 539.02zM1166.15 139.02L1209.46 164.02L1209.46 214.02L1166.15 239.02L1122.85 214.02L1122.85 164.02zM1209.46 364.02L1252.76 389.02L1252.76 439.02L1209.46 464.02L1166.15 439.02L1166.15 389.02zM1252.76 289.02L1296.06 314.02L1296.06 364.02L1252.76 389.02L1209.46 364.02L1209.46 314.02zM1296.06 514.02L1339.37 539.02L1339.37 589.02L1296.06 614.02L1252.76 589.02L1252.76 539.02zM1339.37 289.02L1382.67 314.02L1382.67 364.02L1339.37 389.02L1296.06 364.02L1296.06 314.02zM1339.37 439.02L1382.67 464.02L1382.67 514.02L1339.37 539.02L1296.06 514.02L1296.06 464.02zM1382.67 514.02L1425.97 539.02L1425.97 589.02L1382.67 614.02L1339.37 589.02L1339.37 539.02zM1469.27 514.02L1512.58 539.02L1512.58 589.02L1469.27 614.02L1425.97 589.02L1425.97 539.02z" stroke="rgba(6, 80, 156, 0.93)" stroke-width="2"></path>
    </g>
    <defs>
        <mask id="SvgjsMask1000">
            <rect width="1440" height="560" fill="#ffffff"></rect>
        </mask>
    </defs>
</svg>